<svg xmlns="http://www.w3.org/2000/svg" xmlns:xlink="http://www.w3.org/1999/xlink" width="150" zoomAndPan="magnify" viewBox="0 0 112.5 31.5" height="42" preserveAspectRatio="xMidYMid meet" version="1.0"><defs><g/><clipPath id="3831dcdb38"><path d="M 4 22 L 108 22 L 108 22.070312 L 4 22.070312 Z M 15.589844 22.070312 L 108 22.070312 L 108 24 L 15.589844 24 Z M 4 22.070312 L 9.382812 22.070312 L 9.382812 24 L 4 24 Z M 4 22.070312 " clip-rule="nonzero"/></clipPath></defs><g clip-path="url(#3831dcdb38)"><path fill="#ffffff" d="M 4.390625 22.441406 L 107.601562 22.441406 L 107.601562 23.917969 L 4.390625 23.917969 Z M 4.390625 22.441406 " fill-opacity="1" fill-rule="nonzero"/></g><g fill="#ffffff" fill-opacity="1"><g transform="translate(4.391125, 20.964236)"><g><path d="M 11.96875 -1.59375 L 12.359375 -3.203125 L 12.09375 -3.328125 C 11.015625 -1.28125 9.171875 -0.046875 7.203125 -0.046875 C 7.0625 -0.046875 6.921875 -0.046875 6.765625 -0.0625 C 4 -0.453125 1.78125 -3.703125 1.78125 -7.25 C 1.78125 -10.96875 4.203125 -14.453125 7.203125 -14.453125 C 9.046875 -14.453125 11.015625 -13.453125 11.890625 -11.515625 L 12.15625 -11.671875 L 12.125 -11.671875 L 11.828125 -13.046875 C 11.828125 -13.046875 10.8125 -13.703125 9.640625 -14.21875 L 9.6875 -14.1875 C 8.90625 -14.578125 8.046875 -14.765625 7.203125 -14.765625 C 3.78125 -14.765625 1.03125 -11.390625 1.03125 -7.25 C 1.03125 -3.1875 3.671875 0.125 6.984375 0.265625 L 6.5 1.765625 C 7.28125 1.765625 8.46875 2.375 8.46875 3.296875 C 8.46875 4.3125 7.453125 5.203125 6.296875 5.203125 C 5.609375 5.203125 4.796875 4.734375 4.40625 4.3125 L 4.1875 4.515625 C 4.65625 5.09375 5.484375 5.5625 6.375 5.5625 C 7.953125 5.5625 9.125 4.328125 9.125 3.296875 C 9.125 2.234375 8.234375 1.34375 7.015625 1.09375 L 7.265625 0.265625 C 8.015625 0.265625 8.75 0.109375 9.46875 -0.25 L 9.4375 -0.25 C 10.8125 -0.828125 11.96875 -1.59375 11.96875 -1.59375 Z M 11.96875 -1.59375 "/></g></g></g><g fill="#ffffff" fill-opacity="1"><g transform="translate(17.780798, 20.964236)"><g><path d="M 1.03125 -0.296875 L 1.03125 0 L 4.4375 0 L 4.4375 -0.296875 C 3.765625 -0.296875 2.71875 -0.359375 2.890625 -0.78125 L 2.875 -0.78125 L 5.03125 -6.328125 L 10.65625 -6.328125 L 12.796875 -0.78125 C 12.953125 -0.375 12.25 -0.296875 11.59375 -0.296875 L 11.59375 0 L 14.984375 0 L 14.984375 -0.296875 C 14.390625 -0.296875 13.828125 -0.375 13.625 -0.71875 L 8.234375 -14.609375 L 8.234375 -14.640625 L 7.921875 -14.640625 L 2.546875 -0.765625 C 2.34375 -0.328125 1.609375 -0.296875 1.03125 -0.296875 Z M 10.53125 -6.625 L 5.15625 -6.625 L 7.84375 -13.578125 Z M 10.53125 -6.625 "/></g></g></g><g fill="#ffffff" fill-opacity="1"><g transform="translate(33.79874, 20.964236)"><g><path d="M 1.03125 -0.296875 L 1.03125 0 L 3.96875 0 L 3.96875 -0.296875 C 3.25 -0.296875 2.65625 -0.40625 2.65625 -0.78125 L 2.65625 -13.953125 L 11.484375 0 L 11.765625 0 L 11.765625 -13.84375 C 11.765625 -14.203125 12.359375 -14.34375 13.078125 -14.34375 L 13.078125 -14.640625 L 10.140625 -14.640625 L 10.140625 -14.34375 C 10.875 -14.34375 11.46875 -14.203125 11.46875 -13.84375 L 11.46875 -1.46875 L 3.078125 -14.640625 L 1.03125 -14.640625 L 1.03125 -14.34375 C 1.765625 -14.34375 2.34375 -14.203125 2.34375 -13.84375 L 2.34375 -0.78125 C 2.34375 -0.40625 1.765625 -0.296875 1.03125 -0.296875 Z M 1.03125 -0.296875 "/></g></g></g><g fill="#ffffff" fill-opacity="1"><g transform="translate(47.912748, 20.964236)"><g><path d="M 1.03125 0 L 4.4375 0 L 4.4375 -0.296875 L 4.15625 -0.296875 C 3.78125 -0.3125 3.109375 -0.40625 3.109375 -0.78125 L 3.109375 -7.203125 L 3.359375 -7.4375 L 10.140625 -0.78125 C 10.578125 -0.390625 10 -0.3125 9.5625 -0.296875 L 9.234375 -0.296875 L 9.234375 0 L 12.625 0 L 12.625 -0.296875 L 12.546875 -0.296875 C 12.359375 -0.296875 11.859375 -0.3125 11.40625 -0.59375 L 3.890625 -7.953125 L 10.046875 -13.8125 C 10.453125 -14.1875 11.15625 -14.28125 11.453125 -14.3125 L 11.734375 -14.3125 L 11.734375 -14.59375 L 8.421875 -14.59375 L 8.421875 -14.3125 L 8.71875 -14.3125 C 9.15625 -14.28125 9.921875 -14.21875 9.671875 -13.875 L 3.109375 -7.59375 L 3.109375 -13.828125 C 3.109375 -14.1875 3.78125 -14.28125 4.15625 -14.328125 L 4.4375 -14.328125 L 4.4375 -14.609375 L 1.03125 -14.609375 L 1.03125 -14.328125 L 1.296875 -14.328125 C 1.671875 -14.28125 2.359375 -14.1875 2.359375 -13.828125 L 2.359375 -0.78125 C 2.359375 -0.40625 1.671875 -0.3125 1.296875 -0.296875 L 1.03125 -0.296875 Z M 1.03125 0 "/></g></g></g><g fill="#ffffff" fill-opacity="1"><g transform="translate(61.467987, 20.964236)"><g><path d="M 1.03125 -0.296875 L 1.03125 0 L 4.4375 0 L 4.4375 -0.296875 C 3.765625 -0.296875 2.71875 -0.359375 2.890625 -0.78125 L 2.875 -0.78125 L 5.03125 -6.328125 L 10.65625 -6.328125 L 12.796875 -0.78125 C 12.953125 -0.375 12.25 -0.296875 11.59375 -0.296875 L 11.59375 0 L 14.984375 0 L 14.984375 -0.296875 C 14.390625 -0.296875 13.828125 -0.375 13.625 -0.71875 L 8.234375 -14.609375 L 8.234375 -14.640625 L 7.921875 -14.640625 L 2.546875 -0.765625 C 2.34375 -0.328125 1.609375 -0.296875 1.03125 -0.296875 Z M 10.53125 -6.625 L 5.15625 -6.625 L 7.84375 -13.578125 Z M 10.53125 -6.625 "/></g></g></g><g fill="#ffffff" fill-opacity="1"><g transform="translate(77.485928, 20.964236)"><g><path d="M 5.34375 -0.3125 L 5.34375 0 L 8.734375 0 L 8.734375 -0.3125 C 8.015625 -0.3125 7.40625 -0.4375 7.40625 -0.8125 L 7.40625 -6.5625 L 11.59375 -13.84375 C 11.796875 -14.265625 12.34375 -14.34375 13.0625 -14.34375 L 13.0625 -14.640625 L 10.078125 -14.640625 L 10.078125 -14.34375 C 10.8125 -14.34375 11.46875 -14.265625 11.265625 -13.84375 L 7.25 -6.921875 L 3.25 -13.84375 C 3.078125 -14.21875 3.703125 -14.328125 4.4375 -14.328125 L 4.4375 -14.640625 L 1.03125 -14.640625 L 1.03125 -14.328125 C 1.765625 -14.328125 2.171875 -14.25 2.40625 -13.84375 L 6.671875 -6.4375 L 6.671875 -0.8125 C 6.671875 -0.4375 6.0625 -0.3125 5.34375 -0.3125 Z M 5.34375 -0.3125 "/></g></g></g><g fill="#ffffff" fill-opacity="1"><g transform="translate(91.579242, 20.964236)"><g><path d="M 1.03125 -0.296875 L 1.03125 0 L 4.4375 0 L 4.4375 -0.296875 C 3.765625 -0.296875 2.71875 -0.359375 2.890625 -0.78125 L 2.875 -0.78125 L 5.03125 -6.328125 L 10.65625 -6.328125 L 12.796875 -0.78125 C 12.953125 -0.375 12.25 -0.296875 11.59375 -0.296875 L 11.59375 0 L 14.984375 0 L 14.984375 -0.296875 C 14.390625 -0.296875 13.828125 -0.375 13.625 -0.71875 L 8.234375 -14.609375 L 8.234375 -14.640625 L 7.921875 -14.640625 L 2.546875 -0.765625 C 2.34375 -0.328125 1.609375 -0.296875 1.03125 -0.296875 Z M 10.53125 -6.625 L 5.15625 -6.625 L 7.84375 -13.578125 Z M 10.53125 -6.625 "/></g></g></g></svg>